<?xml version="1.0" encoding="UTF-8"?>
<svg id="Layer_1" data-name="Layer 1" xmlns="http://www.w3.org/2000/svg" viewBox="0 0 114 40">
  <defs>
    <style>
      .cls-1 {
        fill: #903;
      }
    </style>
  </defs>
  <g>
    <path class="cls-1" d="M20.34,26.41c1.38,.01,2.51-1.17,2.38-2.58-.11-1.23-1.18-2.15-2.42-2.16h-1.3s0-.01,0-.01h-1.36c-1.56-.02-2.98-.67-4-1.71s-1.64-2.46-1.63-4.02c.03-3.13,2.59-5.65,5.72-5.63h1.37c2.47,.03,3.73-2.94,2-4.7h0c-1.07-1.09-2.83-1.1-3.92-.03L4.62,17.92c-1.09,1.07-1.1,2.83-.03,3.92l3.6,3.66c.52,.52,1.22,.82,1.95,.83l10.21,.08Z"/>
    <path d="M33.44,22.08l-12.57,12.37c-.54,.53-1.24,.79-1.94,.79s-1.43-.28-1.98-.83c-1.73-1.76-.47-4.74,2-4.72h1.37c3.19,.04,5.79-2.58,5.72-5.79-.07-3.09-2.66-5.53-5.75-5.55h-1.24s-1.37-.02-1.37-.02c-1.31,0-2.36-1.08-2.35-2.39,0-1.31,1.08-2.36,2.39-2.35l10.21,.08c.74,0,1.44,.3,1.95,.83l3.6,3.66c1.07,1.09,1.06,2.85-.03,3.92Z"/>
  </g>
  <g>
    <g>
      <path d="M40.86,19.04c-.54,0-.99-.12-1.35-.36-.37-.24-.62-.57-.77-.98l.91-.53c.21,.55,.63,.83,1.24,.83,.3,0,.52-.05,.66-.16,.14-.11,.21-.25,.21-.41,0-.19-.08-.34-.26-.45-.17-.11-.47-.22-.91-.34-.24-.07-.45-.14-.61-.22-.17-.07-.34-.17-.5-.29-.17-.12-.29-.28-.38-.46s-.13-.4-.13-.65c0-.49,.17-.88,.52-1.17,.35-.29,.77-.44,1.26-.44,.44,0,.82,.11,1.16,.32,.33,.21,.59,.51,.78,.89l-.9,.52c-.22-.46-.56-.7-1.04-.7-.22,0-.4,.05-.52,.15-.13,.1-.19,.23-.19,.39,0,.17,.07,.31,.21,.41,.14,.11,.41,.22,.82,.34,.16,.05,.29,.09,.37,.12s.2,.07,.35,.13,.26,.11,.34,.17c.08,.05,.17,.12,.27,.21s.18,.18,.24,.27c.05,.09,.1,.2,.14,.34,.04,.13,.06,.28,.06,.43,0,.5-.18,.9-.54,1.19s-.84,.44-1.42,.44Z"/>
      <path d="M45.26,18.93l-1.51-5.41h1.12l1.04,4.01,1.13-4.01h.91l1.14,4.01,1.04-4.01h1.12l-1.51,5.41h-1.21l-1.02-3.57-1.01,3.57h-1.21Z"/>
      <path d="M52.63,13.52h1.07v5.41h-1.07v-5.41Z"/>
      <path d="M58.71,14.54h-2.16v1.28h2.1v1.02h-2.1v2.09h-1.07v-5.41h3.23v1.02Z"/>
      <path d="M63.84,13.52v1.02h-1.46v4.39h-1.07v-4.39h-1.45v-1.02h3.98Z"/>
      <path d="M70.88,18.93l-1.09-1.88h-.81v1.88h-1.07v-5.41h2.16c.5,0,.93,.17,1.27,.53,.35,.35,.53,.77,.53,1.27,0,.33-.1,.65-.29,.93-.19,.29-.44,.5-.76,.65l1.2,2.04h-1.15Zm-1.9-4.41v1.6h1.1c.2,0,.37-.08,.52-.24s.22-.35,.22-.57-.07-.41-.22-.56-.32-.23-.52-.23h-1.1Z"/>
      <path d="M74.5,17.91h2.28v1.02h-3.35v-5.41h3.31v1.02h-2.24v1.15h2.05v1.01h-2.05v1.21Z"/>
      <path d="M80.15,19.04c-.54,0-.99-.12-1.35-.36-.37-.24-.62-.57-.77-.98l.91-.53c.21,.55,.63,.83,1.25,.83,.3,0,.52-.05,.66-.16,.14-.11,.21-.25,.21-.41,0-.19-.09-.34-.26-.45-.17-.11-.47-.22-.91-.34-.24-.07-.45-.14-.61-.22s-.34-.17-.5-.29c-.17-.12-.29-.28-.38-.46s-.13-.4-.13-.65c0-.49,.17-.88,.52-1.17,.35-.29,.77-.44,1.26-.44,.44,0,.82,.11,1.16,.32s.59,.51,.78,.89l-.9,.52c-.22-.46-.56-.7-1.04-.7-.22,0-.4,.05-.52,.15-.13,.1-.19,.23-.19,.39,0,.17,.07,.31,.21,.41,.14,.11,.41,.22,.82,.34,.16,.05,.29,.09,.37,.12,.08,.03,.2,.07,.35,.13s.26,.11,.34,.17c.08,.05,.17,.12,.27,.21s.18,.18,.24,.27c.05,.09,.1,.2,.14,.34s.06,.28,.06,.43c0,.5-.18,.9-.54,1.19-.36,.29-.84,.44-1.42,.44Z"/>
      <path d="M85.56,13.52c.52,0,.96,.17,1.31,.53s.53,.78,.53,1.29-.18,.94-.53,1.29c-.36,.35-.79,.53-1.31,.53h-.95v1.78h-1.07v-5.41h2.02Zm0,2.64c.23,0,.42-.08,.56-.24,.15-.16,.22-.35,.22-.58s-.08-.43-.22-.59-.34-.23-.56-.23h-.95v1.64h.95Z"/>
      <path d="M93.39,18.22c-.55,.54-1.21,.82-2,.82s-1.45-.27-1.99-.82-.82-1.21-.82-2,.27-1.45,.82-2,1.21-.82,1.99-.82,1.45,.27,2,.82c.55,.54,.82,1.21,.82,2s-.27,1.45-.82,2Zm-3.24-.73c.34,.33,.75,.5,1.24,.5s.91-.17,1.25-.5c.33-.33,.5-.76,.5-1.27s-.17-.94-.5-1.28c-.34-.33-.75-.5-1.25-.5s-.91,.17-1.24,.5c-.34,.34-.5,.76-.5,1.28s.17,.94,.5,1.27Z"/>
      <path d="M98.86,13.52h1.07v5.41h-.81l-2.32-3.31v3.31h-1.07v-5.41h.81l2.32,3.3v-3.3Z"/>
      <path d="M103.47,19.04c-.54,0-.99-.12-1.35-.36-.37-.24-.62-.57-.77-.98l.91-.53c.21,.55,.63,.83,1.25,.83,.3,0,.52-.05,.66-.16,.14-.11,.21-.25,.21-.41,0-.19-.09-.34-.26-.45-.17-.11-.47-.22-.91-.34-.24-.07-.45-.14-.61-.22s-.34-.17-.5-.29c-.17-.12-.29-.28-.38-.46s-.13-.4-.13-.65c0-.49,.17-.88,.52-1.17,.35-.29,.77-.44,1.26-.44,.44,0,.82,.11,1.16,.32s.59,.51,.78,.89l-.9,.52c-.22-.46-.56-.7-1.04-.7-.22,0-.4,.05-.52,.15-.13,.1-.19,.23-.19,.39,0,.17,.07,.31,.21,.41,.14,.11,.41,.22,.82,.34,.16,.05,.29,.09,.37,.12,.08,.03,.2,.07,.35,.13s.26,.11,.34,.17c.08,.05,.17,.12,.27,.21s.18,.18,.24,.27c.05,.09,.1,.2,.14,.34s.06,.28,.06,.43c0,.5-.18,.9-.54,1.19-.36,.29-.84,.44-1.42,.44Z"/>
      <path d="M107.93,17.91h2.28v1.02h-3.35v-5.41h3.31v1.02h-2.24v1.15h2.05v1.01h-2.05v1.21Z"/>
    </g>
    <g>
      <path d="M41.28,25.1v.46h-2.55v-3.6h2.51v.46h-2.01v1.08h1.93v.46h-1.93v1.12h2.06Z"/>
      <path d="M44.32,23l-1.08,2.57h-.52l-1.08-2.57h.5l.84,2.06,.83-2.06h.51Z"/>
      <path d="M45.88,25.21c.29,0,.56-.11,.76-.31l.27,.33c-.25,.25-.62,.4-1.02,.4-.78,0-1.36-.55-1.36-1.37s.54-1.34,1.33-1.34,1.21,.58,1.21,1.18c0,.07-.01,.23-.04,.35h-2.03c.07,.46,.41,.75,.88,.75Zm-.87-1.16h1.58c0-.37-.25-.7-.74-.7-.45,0-.76,.27-.84,.7Z"/>
      <path d="M49.4,22.99l-.15,.43c-.09-.03-.18-.05-.28-.05-.38,0-.78,.27-.78,.77v1.44h-.45v-2.57h.39l.04,.42c.18-.3,.5-.49,.88-.49,.13,0,.25,.02,.36,.06Z"/>
      <path d="M52.29,23l-1.47,3.6h-.45l.41-1.03-1.11-2.57h.5l.83,1.99,.79-1.99h.51Z"/>
      <path d="M54.01,25.18l.25-.43c.32,.24,.8,.41,1.24,.41,.51,0,.88-.2,.88-.58,0-.44-.48-.49-.91-.57-1.08-.2-1.35-.48-1.35-.99,0-.87,.79-1.12,1.45-1.12,.47,0,.89,.13,1.24,.34l-.24,.42c-.33-.2-.64-.29-1.02-.29-.62,0-.92,.23-.92,.61,0,.32,.22,.46,.94,.57,.44,.07,1.33,.21,1.33,1.02,0,.63-.54,1.06-1.4,1.06-.64,0-1.23-.26-1.48-.45Z"/>
      <path d="M58.81,25.21c.29,0,.56-.11,.76-.31l.27,.33c-.25,.25-.62,.4-1.02,.4-.78,0-1.36-.55-1.36-1.37s.54-1.34,1.33-1.34,1.21,.58,1.21,1.18c0,.07-.01,.23-.04,.35h-2.03c.07,.46,.41,.75,.88,.75Zm-.87-1.16h1.58c0-.37-.25-.7-.74-.7-.45,0-.76,.27-.84,.7Z"/>
      <path d="M60.52,24.28c0-.79,.58-1.35,1.35-1.35,.39,0,.73,.14,.97,.38l-.31,.33c-.14-.17-.38-.28-.67-.28-.51,0-.87,.37-.87,.92s.35,.92,.88,.92c.26,0,.49-.09,.67-.3l.31,.33c-.25,.25-.59,.4-.99,.4-.78,0-1.35-.56-1.35-1.35Z"/>
      <path d="M63.21,24.28c0-.8,.58-1.35,1.35-1.35s1.35,.56,1.35,1.35-.58,1.35-1.35,1.35-1.35-.55-1.35-1.35Zm2.23,0c0-.55-.36-.92-.88-.92s-.88,.37-.88,.92,.36,.92,.88,.92,.88-.37,.88-.92Z"/>
      <path d="M68.93,23.97v1.59h-.45v-1.54c0-.38-.26-.66-.66-.66-.37,0-.78,.24-.78,.71v1.5h-.45v-2.57h.39l.04,.39c.18-.28,.5-.45,.87-.45,.6,0,1.05,.43,1.05,1.04Z"/>
      <path d="M72.21,21.71v3.85h-.38l-.04-.4c-.19,.29-.5,.46-.9,.46-.71,0-1.31-.55-1.31-1.36s.59-1.35,1.33-1.35c.37,0,.66,.13,.85,.37v-1.58h.45Zm-.41,2.57c0-.55-.35-.92-.88-.92s-.88,.37-.88,.92,.35,.92,.88,.92,.88-.37,.88-.92Z"/>
      <path d="M74.26,23.77c0-1.1,.79-1.86,1.83-1.86,.67,0,1.19,.31,1.46,.68l-.41,.29c-.24-.32-.63-.5-1.06-.5-.76,0-1.32,.56-1.32,1.39s.54,1.39,1.32,1.39c.44,0,.84-.19,1.08-.53l.41,.29c-.34,.49-.93,.72-1.5,.72-1.05,0-1.83-.77-1.83-1.87Z"/>
      <path d="M78.05,24.28c0-.8,.58-1.35,1.35-1.35s1.35,.56,1.35,1.35-.58,1.35-1.35,1.35-1.35-.55-1.35-1.35Zm2.23,0c0-.55-.36-.92-.88-.92s-.88,.37-.88,.92,.36,.92,.88,.92,.88-.37,.88-.92Z"/>
      <path d="M83.63,23v2.57h-.39l-.03-.38c-.16,.28-.45,.45-.81,.45-.58,0-1.03-.43-1.03-1.04v-1.59h.45v1.59c0,.4,.33,.61,.66,.61s.69-.25,.69-.71v-1.5h.45Z"/>
      <path d="M86.78,23.97v1.59h-.45v-1.54c0-.38-.26-.66-.66-.66-.37,0-.78,.24-.78,.71v1.5h-.45v-2.57h.39l.04,.39c.18-.28,.5-.45,.87-.45,.6,0,1.05,.43,1.05,1.04Z"/>
      <path d="M89.4,25.37c-.15,.14-.38,.26-.74,.26-.59,0-.92-.31-.92-.92v-1.31h-.52v-.41h.52v-.79h.45v.79h1.07v.41h-1.07v1.31c0,.33,.15,.49,.46,.49,.16,0,.34-.05,.52-.22l.22,.39Z"/>
      <path d="M89.81,25.31l.21-.37c.18,.14,.57,.26,.91,.26,.32,0,.64-.09,.64-.37,0-.23-.3-.29-.67-.36-.64-.12-.99-.26-.99-.74,0-.62,.59-.81,1.08-.81,.39,0,.75,.11,.98,.27l-.21,.37c-.19-.12-.45-.21-.78-.21-.39,0-.6,.12-.6,.36,0,.18,.11,.24,.58,.33,.6,.11,1.08,.22,1.08,.76s-.47,.83-1.12,.83c-.37,0-.86-.13-1.11-.33Z"/>
    </g>
  </g>
</svg>